<svg id="Layer_1" data-name="Layer 1" xmlns="http://www.w3.org/2000/svg" viewBox="0 0 566.09 382.91"><defs><style>.cls-1{fill:none;}.cls-2{fill:#e9c043;}.cls-3{fill:#7f502e;}</style></defs><path class="cls-1" d="M263.48,105.52c0-48.06,89.84-86.95,200.87-86.95"/><path class="cls-1" d="M464.35,18.57c0,76.42-103.85,138.26-232.18,138.26"/><path class="cls-1" d="M232.17,156.83c0,76.42-103.84,138.26-232.17,138.26"/><path class="cls-1" d="M232.17,170.74c0-49.47,92.61-89.49,207-89.49"/><path class="cls-2" d="M133,144.65C137.2,133.25,166.37,57.1,246.09,29c73.42-25.87,166.17-2.69,213,70.44,47.94,74.79,30.88,175.33-35.65,233-86.23,74.8-201.28,27.84-224.5,11.23-6.13-4.38-12-9.49-12-9.49s-25.61-22.06-41.79-54.28C138.18,266,109.48,209.32,133,144.65Z"/><path class="cls-3" d="M118.18,139.24C146.28,62.18,212,5.56,295.41.49,404.82-7,500.84,71.92,507.68,182.69A199.54,199.54,0,0,1,504,235.84C494.16,276,470.2,312.61,438.52,339c-1.71,1.46-4.07,3.23-5.77,4.62-1.85,1.29-7.07,5.12-9,6.48-2.16,1.35-7.29,4.62-9.36,5.91-2,1.07-7.62,4.19-9.7,5.3-3.89,1.84-9.42,4.53-13.4,6-2,.83-4.77,1.94-6.83,2.62-51.21,18.27-109.11,10.61-157.49-12.2-.38.93-.14.25-.24.45l-.06,0-.12,0-.24-.08-.48-.15c-12.47-4.11-24.82-9.1-35.45-17.07-60.47-44.13-95.14-128.41-72.19-201.54Zm29.72,10.83c-3.29,9-6.92,18-8.81,27.4-7.12,34.39-.54,70.45,14.19,102.46,12,25.83,34.32,56.27,59.68,70.1,4.34,2.44,9.22,4.9,13.72,7l.23.1.11.05.06,0c-.06.22.22-.44-.12.49a244,244,0,0,0,53.27,9.81c34.76,2.3,70.76-3.36,101.11-21,3.25-1.7,7.63-4.72,10.75-6.7,1.53-1.19,6.11-4.43,7.63-5.59,1.67-1.37,5.56-4.66,7.25-6l4.58-4.32a163.9,163.9,0,0,0,44.22-73.36c11.09-39.34,13.67-79.55-2.68-117.86C421.21,54.24,327.42,19.15,249.44,46.88c-47.2,16.5-83.38,57.29-101.54,103.19Z"/><path class="cls-2" d="M177.39,220.31c33.46-14.1,73-26,88.7-9.57,8.32,8.74,4.75,20.07,8.69,33,6.4,21,32,44.4,113.05,57.39"/><path class="cls-3" d="M177.2,219.84c22.47-20.09,66.67-43.71,95.65-24.82,11.73,7.7,15.95,20.12,17,33.28,1,11.11,3.59,17.14,11,24.52,9.7,9.6,22.63,16.66,35.6,23.2,11.9,6.07,24.24,11.41,36.32,17.19,5,2.34,10.08,4.66,15.12,7.47l-.16,1a165.45,165.45,0,0,1-33.93,1.73c-35.61-1.68-80.86-14.48-94.89-51.59a54.52,54.52,0,0,1-2.85-10.92c-1.1-6.2-.92-12.83-1.82-18-4.64-11.1-48.6-4.43-59.87-3.56-5.49.57-11,1.16-16.8,1.48l-.39-.93Z"/></svg>